<?xml version="1.0" encoding="utf-8"?>
<!-- Generator: Adobe Illustrator 25.1.0, SVG Export Plug-In . SVG Version: 6.00 Build 0)  -->
<svg version="1.1" id="Ebene_1" xmlns="http://www.w3.org/2000/svg" xmlns:xlink="http://www.w3.org/1999/xlink" x="0px" y="0px"
	 width="300px" height="300px" viewBox="0 0 300 300" style="enable-background:new 0 0 300 300;" xml:space="preserve">
<style type="text/css">
	.st0{fill:#FFFFFF;}
	.st1{fill:#E3000B;}
</style>
<g>
	<path class="st0" d="M260.7,0H39.3C17.6,0,0,17.6,0,39.3v221.4C0,282.4,17.6,300,39.3,300h221.4c21.7,0,39.3-17.6,39.3-39.3V39.3
		C300,17.6,282.4,0,260.7,0z"/>
</g>
<path class="st1" d="M122.4,129c-0.3,1.1-0.4,1.3-0.4,2.3c0,4.2,4.2,7.6,9.5,7.8l0,0h53.6l5-18.7h-38.6l2.5-8.9h38.5l5.1-18.6H159
	l2.4-8.9h38.5l5.1-19h-55.4c-6.5,0-11.2,3.4-12.4,8.2L122.4,129z M148.1,180.6c-1.3,4.9-8.6,31.7-9.1,33.5c-0.5,1.9-1.4,2.4-2.8,2.4
	c-1.5,0-11.5,0-11.5,0l10.2-37.9h12.1C148.5,178.6,148.2,180,148.1,180.6 M175.8,173.9c0.2-0.7,0.3-1.4,0.3-2.1
	c0-6-6-10.8-13.3-10.8c-0.2,0-49,0-49,0l-20.2,74.2h55.2l0,0c0,0,0.1,0,0.1,0c6.8,0,11.8-4.3,13.5-11L175.8,173.9L175.8,173.9z
	 M265,152.2C263.8,214.7,212.8,265,150,265c-62.8,0-113.8-50.3-115-112.9H265z M265,147.8H35C36.2,85.3,87.2,35,150,35
	C212.8,35,263.8,85.3,265,147.8 M269.4,150C269.4,84,216,30.6,150,30.6C84,30.6,30.6,84,30.6,150c0,66,53.5,119.4,119.4,119.4
	C216,269.4,269.4,216,269.4,150 M273.8,150c0,68.4-55.4,123.8-123.8,123.8c-68.4,0-123.8-55.4-123.8-123.8
	C26.2,81.6,81.6,26.2,150,26.2C218.4,26.2,273.8,81.6,273.8,150 M295.6,260.7V39.3c0-19.3-15.6-35-35-35H39.3c-19.3,0-35,15.6-35,35
	v221.4c0,19.3,15.6,35,35,35h221.4C280,295.6,295.6,280,295.6,260.7"/>
</svg>
